@startuml Animation Editor Class Diagram
skinparam monochrome true
skinparam componentStyle uml2
skinparam classAttributeIconSize 0
skinparam shadowing false
skinparam handwritten false

title Animation Editor Class Diagram

' left to right direction
package FUDGE <<Rectangle>> {
	package Components <<Rectangle>> {
		abstract Component {

		}
		class ComponentAnimator extends Component{
			+ speed: number;
			+ currentAnimation: Animation
			+ nextAnimation: Animation
			+ syncChildrenSpeed: boolean
			- parentSpeed: number;
			# setTime(time: number)
			+ play(name: string)
		}
	}

	package UI {
		package UI {
		interface UIElement{
			name: string
			hover: string
			help: string
			extendedHelp: string
			' element: HTMLElement
		}
		class UIButton extends DOM.HTMLButtonElement implements UIElement {
			functionToCall: function
		}

		class UIGenerator {
			createButton(...): FudgeButton
			createUIElementFromMutator(mutator: Mutator): HTMLElement
		}
	}

	package Animation <<Rectangle>> {

		class Animation extends Mutable.Mutator{
			+ name: string
			+ animatedObject: MutatorForAnimation
			+ clips: {[property: string]: Sequence}
			+ startTime: number
			+ totaltime: number
			+ events: Event[]
			+ labels: Label[]
			+ wrapMode: PLAYMODE
			+ fps: number
			+ update()
			- checkEvents()
		}

		class Sequence extends Mutable.Mutator {
			+ keys: Key[]
			+ evaluate(_time: number): number
			+ addKey(_key:Key)
			+ removeKey(_key:Key)
		}

		class Key extends Mutable.Mutator {
			+ time: number
			+ value: number
			- slopeIn: number
			- slopeOut: number
			+ functionIn: Function
			+ functionOut: Function
			- broken: boolean
			+ path2d: Path2D
			+ setSlopeIn(_slope:number)
			+ setSlopeOut(_slope:number)
			+ generatePath2D()
			{static} + sort(a: Key, b: Key)
		}

		class Function {
			- a: number
			- b: number
			- c: number
			- d: number
			- keyOut: Key
			- keyIn: Key
			+ evaluate(_time: number): number
			- calculate()
			- setKeyIn(_key)
			- setKeyOut(_key)
		}

		enum PLAYMODE{
			INHERIT
			PLAYONCE
			PLAYONCESTOPAFTER
			LOOP
			PINGPONG
			STOP
		}

		class Label {
			time: number
			name: string
		}

		class AnimationEvent {
			name: string
			time: number
		}

		' Associations
		ComponentAnimator "1" -- "n" Animation
		Animation "1" -- "n" Sequence
		Sequence "1" -- "n" Key
		Key "2" -- "2" Function	
		Animation -- "n" AnimationEvent
		Animation -- "n" Label
	}
	package Animator <<Rectangle>> {
		class Animator {
			animations: Animation[]
			cursorPosition: number
			crc: CanvasRenderingContext2D

		}

		class UIHandler {
			views: EditorView[]
			mousedown()
			mousemove()
			mouseup()
			keydown()
			keyup()
			
			createUI()
			updateUI()
			switchView()
		}

		interface EditorView{
			updateView()
		}
		class KeyEditor implements EditorView {
		
		}
		 
		class CurveEditor implements EditorView {
		
		}
		
		' Associations
		Animator -- "n" Animation
		Animator "1" -- "1" UIHandler
	}
}
@enduml